<?xml version="1.0" standalone="yes"?><svg xmlns="http://www.w3.org/2000/svg" version="1.1" width="123" height="123" viewBox="0 0 123 123" shape-rendering="crispEdges"><rect x="0" y="0" width="123" height="123" fill="#000000"/><path fill="#ffffff" d="M12 12h3v3H12V12M15 12h3v3H15V12M18 12h3v3H18V12M21 12h3v3H21V12M24 12h3v3H24V12M27 12h3v3H27V12M30 12h3v3H30V12M45 12h3v3H45V12M48 12h3v3H48V12M51 12h3v3H51V12M54 12h3v3H54V12M63 12h3v3H63V12M66 12h3v3H66V12M75 12h3v3H75V12M81 12h3v3H81V12M90 12h3v3H90V12M93 12h3v3H93V12M96 12h3v3H96V12M99 12h3v3H99V12M102 12h3v3H102V12M105 12h3v3H105V12M108 12h3v3H108V12M12 15h3v3H12V15M30 15h3v3H30V15M45 15h3v3H45V15M51 15h3v3H51V15M54 15h3v3H54V15M57 15h3v3H57V15M60 15h3v3H60V15M63 15h3v3H63V15M69 15h3v3H69V15M72 15h3v3H72V15M78 15h3v3H78V15M84 15h3v3H84V15M90 15h3v3H90V15M108 15h3v3H108V15M12 18h3v3H12V18M18 18h3v3H18V18M21 18h3v3H21V18M24 18h3v3H24V18M30 18h3v3H30V18M36 18h3v3H36V18M42 18h3v3H42V18M51 18h3v3H51V18M60 18h3v3H60V18M63 18h3v3H63V18M66 18h3v3H66V18M69 18h3v3H69V18M75 18h3v3H75V18M78 18h3v3H78V18M84 18h3v3H84V18M90 18h3v3H90V18M96 18h3v3H96V18M99 18h3v3H99V18M102 18h3v3H102V18M108 18h3v3H108V18M12 21h3v3H12V21M18 21h3v3H18V21M21 21h3v3H21V21M24 21h3v3H24V21M30 21h3v3H30V21M36 21h3v3H36V21M39 21h3v3H39V21M42 21h3v3H42V21M45 21h3v3H45V21M48 21h3v3H48V21M54 21h3v3H54V21M57 21h3v3H57V21M60 21h3v3H60V21M72 21h3v3H72V21M75 21h3v3H75V21M78 21h3v3H78V21M81 21h3v3H81V21M84 21h3v3H84V21M90 21h3v3H90V21M96 21h3v3H96V21M99 21h3v3H99V21M102 21h3v3H102V21M108 21h3v3H108V21M12 24h3v3H12V24M18 24h3v3H18V24M21 24h3v3H21V24M24 24h3v3H24V24M30 24h3v3H30V24M36 24h3v3H36V24M42 24h3v3H42V24M45 24h3v3H45V24M57 24h3v3H57V24M66 24h3v3H66V24M81 24h3v3H81V24M84 24h3v3H84V24M90 24h3v3H90V24M96 24h3v3H96V24M99 24h3v3H99V24M102 24h3v3H102V24M108 24h3v3H108V24M12 27h3v3H12V27M30 27h3v3H30V27M36 27h3v3H36V27M42 27h3v3H42V27M54 27h3v3H54V27M57 27h3v3H57V27M60 27h3v3H60V27M63 27h3v3H63V27M66 27h3v3H66V27M72 27h3v3H72V27M78 27h3v3H78V27M90 27h3v3H90V27M108 27h3v3H108V27M12 30h3v3H12V30M15 30h3v3H15V30M18 30h3v3H18V30M21 30h3v3H21V30M24 30h3v3H24V30M27 30h3v3H27V30M30 30h3v3H30V30M36 30h3v3H36V30M42 30h3v3H42V30M48 30h3v3H48V30M54 30h3v3H54V30M60 30h3v3H60V30M66 30h3v3H66V30M72 30h3v3H72V30M78 30h3v3H78V30M84 30h3v3H84V30M90 30h3v3H90V30M93 30h3v3H93V30M96 30h3v3H96V30M99 30h3v3H99V30M102 30h3v3H102V30M105 30h3v3H105V30M108 30h3v3H108V30M36 33h3v3H36V33M39 33h3v3H39V33M51 33h3v3H51V33M57 33h3v3H57V33M75 33h3v3H75V33M78 33h3v3H78V33M81 33h3v3H81V33M12 36h3v3H12V36M18 36h3v3H18V36M21 36h3v3H21V36M24 36h3v3H24V36M27 36h3v3H27V36M30 36h3v3H30V36M39 36h3v3H39V36M42 36h3v3H42V36M45 36h3v3H45V36M48 36h3v3H48V36M51 36h3v3H51V36M57 36h3v3H57V36M66 36h3v3H66V36M78 36h3v3H78V36M84 36h3v3H84V36M90 36h3v3H90V36M93 36h3v3H93V36M96 36h3v3H96V36M99 36h3v3H99V36M102 36h3v3H102V36M24 39h3v3H24V39M27 39h3v3H27V39M33 39h3v3H33V39M36 39h3v3H36V39M39 39h3v3H39V39M54 39h3v3H54V39M66 39h3v3H66V39M75 39h3v3H75V39M78 39h3v3H78V39M81 39h3v3H81V39M90 39h3v3H90V39M99 39h3v3H99V39M102 39h3v3H102V39M105 39h3v3H105V39M12 42h3v3H12V42M21 42h3v3H21V42M24 42h3v3H24V42M27 42h3v3H27V42M30 42h3v3H30V42M36 42h3v3H36V42M45 42h3v3H45V42M48 42h3v3H48V42M66 42h3v3H66V42M72 42h3v3H72V42M75 42h3v3H75V42M84 42h3v3H84V42M87 42h3v3H87V42M96 42h3v3H96V42M102 42h3v3H102V42M108 42h3v3H108V42M21 45h3v3H21V45M33 45h3v3H33V45M36 45h3v3H36V45M54 45h3v3H54V45M57 45h3v3H57V45M60 45h3v3H60V45M69 45h3v3H69V45M75 45h3v3H75V45M87 45h3v3H87V45M90 45h3v3H90V45M96 45h3v3H96V45M99 45h3v3H99V45M102 45h3v3H102V45M12 48h3v3H12V48M18 48h3v3H18V48M21 48h3v3H21V48M27 48h3v3H27V48M30 48h3v3H30V48M36 48h3v3H36V48M39 48h3v3H39V48M42 48h3v3H42V48M45 48h3v3H45V48M57 48h3v3H57V48M66 48h3v3H66V48M75 48h3v3H75V48M81 48h3v3H81V48M93 48h3v3H93V48M96 48h3v3H96V48M99 48h3v3H99V48M105 48h3v3H105V48M12 51h3v3H12V51M18 51h3v3H18V51M21 51h3v3H21V51M27 51h3v3H27V51M36 51h3v3H36V51M42 51h3v3H42V51M48 51h3v3H48V51M51 51h3v3H51V51M54 51h3v3H54V51M57 51h3v3H57V51M60 51h3v3H60V51M72 51h3v3H72V51M75 51h3v3H75V51M84 51h3v3H84V51M87 51h3v3H87V51M96 51h3v3H96V51M102 51h3v3H102V51M105 51h3v3H105V51M108 51h3v3H108V51M12 54h3v3H12V54M30 54h3v3H30V54M33 54h3v3H33V54M36 54h3v3H36V54M42 54h3v3H42V54M45 54h3v3H45V54M51 54h3v3H51V54M54 54h3v3H54V54M63 54h3v3H63V54M66 54h3v3H66V54M69 54h3v3H69V54M84 54h3v3H84V54M87 54h3v3H87V54M90 54h3v3H90V54M93 54h3v3H93V54M96 54h3v3H96V54M99 54h3v3H99V54M105 54h3v3H105V54M12 57h3v3H12V57M18 57h3v3H18V57M24 57h3v3H24V57M33 57h3v3H33V57M36 57h3v3H36V57M39 57h3v3H39V57M45 57h3v3H45V57M48 57h3v3H48V57M54 57h3v3H54V57M60 57h3v3H60V57M63 57h3v3H63V57M66 57h3v3H66V57M69 57h3v3H69V57M72 57h3v3H72V57M75 57h3v3H75V57M78 57h3v3H78V57M81 57h3v3H81V57M99 57h3v3H99V57M102 57h3v3H102V57M12 60h3v3H12V60M15 60h3v3H15V60M18 60h3v3H18V60M21 60h3v3H21V60M30 60h3v3H30V60M33 60h3v3H33V60M51 60h3v3H51V60M60 60h3v3H60V60M63 60h3v3H63V60M69 60h3v3H69V60M78 60h3v3H78V60M84 60h3v3H84V60M87 60h3v3H87V60M93 60h3v3H93V60M96 60h3v3H96V60M99 60h3v3H99V60M108 60h3v3H108V60M15 63h3v3H15V63M24 63h3v3H24V63M27 63h3v3H27V63M36 63h3v3H36V63M42 63h3v3H42V63M51 63h3v3H51V63M57 63h3v3H57V63M63 63h3v3H63V63M78 63h3v3H78V63M81 63h3v3H81V63M90 63h3v3H90V63M93 63h3v3H93V63M99 63h3v3H99V63M102 63h3v3H102V63M108 63h3v3H108V63M21 66h3v3H21V66M30 66h3v3H30V66M36 66h3v3H36V66M39 66h3v3H39V66M42 66h3v3H42V66M51 66h3v3H51V66M54 66h3v3H54V66M57 66h3v3H57V66M63 66h3v3H63V66M69 66h3v3H69V66M72 66h3v3H72V66M78 66h3v3H78V66M96 66h3v3H96V66M102 66h3v3H102V66M105 66h3v3H105V66M108 66h3v3H108V66M18 69h3v3H18V69M21 69h3v3H21V69M24 69h3v3H24V69M27 69h3v3H27V69M39 69h3v3H39V69M45 69h3v3H45V69M51 69h3v3H51V69M57 69h3v3H57V69M60 69h3v3H60V69M63 69h3v3H63V69M66 69h3v3H66V69M69 69h3v3H69V69M84 69h3v3H84V69M87 69h3v3H87V69M90 69h3v3H90V69M96 69h3v3H96V69M99 69h3v3H99V69M102 69h3v3H102V69M108 69h3v3H108V69M12 72h3v3H12V72M18 72h3v3H18V72M30 72h3v3H30V72M33 72h3v3H33V72M45 72h3v3H45V72M51 72h3v3H51V72M57 72h3v3H57V72M60 72h3v3H60V72M72 72h3v3H72V72M75 72h3v3H75V72M78 72h3v3H78V72M84 72h3v3H84V72M90 72h3v3H90V72M96 72h3v3H96V72M99 72h3v3H99V72M12 75h3v3H12V75M21 75h3v3H21V75M36 75h3v3H36V75M39 75h3v3H39V75M48 75h3v3H48V75M51 75h3v3H51V75M57 75h3v3H57V75M66 75h3v3H66V75M75 75h3v3H75V75M81 75h3v3H81V75M93 75h3v3H93V75M99 75h3v3H99V75M102 75h3v3H102V75M108 75h3v3H108V75M12 78h3v3H12V78M18 78h3v3H18V78M27 78h3v3H27V78M30 78h3v3H30V78M39 78h3v3H39V78M42 78h3v3H42V78M45 78h3v3H45V78M51 78h3v3H51V78M57 78h3v3H57V78M60 78h3v3H60V78M63 78h3v3H63V78M72 78h3v3H72V78M75 78h3v3H75V78M78 78h3v3H78V78M84 78h3v3H84V78M87 78h3v3H87V78M90 78h3v3H90V78M93 78h3v3H93V78M96 78h3v3H96V78M105 78h3v3H105V78M12 81h3v3H12V81M21 81h3v3H21V81M24 81h3v3H24V81M33 81h3v3H33V81M36 81h3v3H36V81M42 81h3v3H42V81M48 81h3v3H48V81M51 81h3v3H51V81M57 81h3v3H57V81M66 81h3v3H66V81M75 81h3v3H75V81M81 81h3v3H81V81M87 81h3v3H87V81M90 81h3v3H90V81M99 81h3v3H99V81M105 81h3v3H105V81M12 84h3v3H12V84M18 84h3v3H18V84M30 84h3v3H30V84M51 84h3v3H51V84M57 84h3v3H57V84M63 84h3v3H63V84M72 84h3v3H72V84M84 84h3v3H84V84M87 84h3v3H87V84M90 84h3v3H90V84M93 84h3v3H93V84M96 84h3v3H96V84M99 84h3v3H99V84M102 84h3v3H102V84M36 87h3v3H36V87M39 87h3v3H39V87M45 87h3v3H45V87M51 87h3v3H51V87M54 87h3v3H54V87M66 87h3v3H66V87M69 87h3v3H69V87M75 87h3v3H75V87M78 87h3v3H78V87M84 87h3v3H84V87M96 87h3v3H96V87M102 87h3v3H102V87M108 87h3v3H108V87M12 90h3v3H12V90M15 90h3v3H15V90M18 90h3v3H18V90M21 90h3v3H21V90M24 90h3v3H24V90M27 90h3v3H27V90M30 90h3v3H30V90M45 90h3v3H45V90M51 90h3v3H51V90M60 90h3v3H60V90M66 90h3v3H66V90M69 90h3v3H69V90M72 90h3v3H72V90M75 90h3v3H75V90M81 90h3v3H81V90M84 90h3v3H84V90M90 90h3v3H90V90M96 90h3v3H96V90M102 90h3v3H102V90M108 90h3v3H108V90M12 93h3v3H12V93M30 93h3v3H30V93M36 93h3v3H36V93M39 93h3v3H39V93M60 93h3v3H60V93M75 93h3v3H75V93M78 93h3v3H78V93M81 93h3v3H81V93M84 93h3v3H84V93M96 93h3v3H96V93M102 93h3v3H102V93M105 93h3v3H105V93M108 93h3v3H108V93M12 96h3v3H12V96M18 96h3v3H18V96M21 96h3v3H21V96M24 96h3v3H24V96M30 96h3v3H30V96M36 96h3v3H36V96M39 96h3v3H39V96M45 96h3v3H45V96M48 96h3v3H48V96M51 96h3v3H51V96M54 96h3v3H54V96M57 96h3v3H57V96M66 96h3v3H66V96M75 96h3v3H75V96M84 96h3v3H84V96M87 96h3v3H87V96M90 96h3v3H90V96M93 96h3v3H93V96M96 96h3v3H96V96M99 96h3v3H99V96M105 96h3v3H105V96M12 99h3v3H12V99M18 99h3v3H18V99M21 99h3v3H21V99M24 99h3v3H24V99M30 99h3v3H30V99M36 99h3v3H36V99M39 99h3v3H39V99M42 99h3v3H42V99M51 99h3v3H51V99M57 99h3v3H57V99M60 99h3v3H60V99M72 99h3v3H72V99M78 99h3v3H78V99M81 99h3v3H81V99M87 99h3v3H87V99M93 99h3v3H93V99M96 99h3v3H96V99M99 99h3v3H99V99M102 99h3v3H102V99M105 99h3v3H105V99M12 102h3v3H12V102M18 102h3v3H18V102M21 102h3v3H21V102M24 102h3v3H24V102M30 102h3v3H30V102M36 102h3v3H36V102M39 102h3v3H39V102M48 102h3v3H48V102M63 102h3v3H63V102M66 102h3v3H66V102M69 102h3v3H69V102M84 102h3v3H84V102M90 102h3v3H90V102M93 102h3v3H93V102M102 102h3v3H102V102M12 105h3v3H12V105M30 105h3v3H30V105M39 105h3v3H39V105M42 105h3v3H42V105M48 105h3v3H48V105M51 105h3v3H51V105M60 105h3v3H60V105M63 105h3v3H63V105M69 105h3v3H69V105M72 105h3v3H72V105M75 105h3v3H75V105M93 105h3v3H93V105M96 105h3v3H96V105M99 105h3v3H99V105M12 108h3v3H12V108M15 108h3v3H15V108M18 108h3v3H18V108M21 108h3v3H21V108M24 108h3v3H24V108M27 108h3v3H27V108M30 108h3v3H30V108M36 108h3v3H36V108M42 108h3v3H42V108M48 108h3v3H48V108M60 108h3v3H60V108M66 108h3v3H66V108M69 108h3v3H69V108M75 108h3v3H75V108M78 108h3v3H78V108M81 108h3v3H81V108M90 108h3v3H90V108M93 108h3v3H93V108M96 108h3v3H96V108M105 108h3v3H105V108"/></svg>