<?xml version="1.0" encoding="UTF-8"?>
<svg width="1024" height="1024" shape-rendering="crispEdges" version="1.1" xmlns="http://www.w3.org/2000/svg">
	<desc>qrcode-generator 4.1.8 by magiclen.org</desc>
	<rect width="1024" height="1024" fill="#FFF"/>
	<path d="M33 33h33v33H33V33M66 33h33v33H66V33M99 33h33v33H99V33M132 33h33v33H132V33M165 33h33v33H165V33M198 33h33v33H198V33M231 33h33v33H231V33M297 33h33v33H297V33M363 33h33v33H363V33M495 33h33v33H495V33M594 33h33v33H594V33M627 33h33v33H627V33M693 33h33v33H693V33M759 33h33v33H759V33M792 33h33v33H792V33M825 33h33v33H825V33M858 33h33v33H858V33M891 33h33v33H891V33M924 33h33v33H924V33M957 33h33v33H957V33M33 66h33v33H33V66M231 66h33v33H231V66M297 66h33v33H297V66M363 66h33v33H363V66M396 66h33v33H396V66M462 66h33v33H462V66M495 66h33v33H495V66M561 66h33v33H561V66M627 66h33v33H627V66M759 66h33v33H759V66M957 66h33v33H957V66M33 99h33v33H33V99M99 99h33v33H99V99M132 99h33v33H132V99M165 99h33v33H165V99M231 99h33v33H231V99M330 99h33v33H330V99M396 99h33v33H396V99M429 99h33v33H429V99M462 99h33v33H462V99M528 99h33v33H528V99M561 99h33v33H561V99M660 99h33v33H660V99M759 99h33v33H759V99M825 99h33v33H825V99M858 99h33v33H858V99M891 99h33v33H891V99M957 99h33v33H957V99M33 132h33v33H33V132M99 132h33v33H99V132M132 132h33v33H132V132M165 132h33v33H165V132M231 132h33v33H231V132M297 132h33v33H297V132M330 132h33v33H330V132M396 132h33v33H396V132M462 132h33v33H462V132M693 132h33v33H693V132M759 132h33v33H759V132M825 132h33v33H825V132M858 132h33v33H858V132M891 132h33v33H891V132M957 132h33v33H957V132M33 165h33v33H33V165M99 165h33v33H99V165M132 165h33v33H132V165M165 165h33v33H165V165M231 165h33v33H231V165M330 165h33v33H330V165M462 165h33v33H462V165M495 165h33v33H495V165M528 165h33v33H528V165M561 165h33v33H561V165M594 165h33v33H594V165M627 165h33v33H627V165M660 165h33v33H660V165M693 165h33v33H693V165M759 165h33v33H759V165M825 165h33v33H825V165M858 165h33v33H858V165M891 165h33v33H891V165M957 165h33v33H957V165M33 198h33v33H33V198M231 198h33v33H231V198M363 198h33v33H363V198M396 198h33v33H396V198M495 198h33v33H495V198M660 198h33v33H660V198M759 198h33v33H759V198M957 198h33v33H957V198M33 231h33v33H33V231M66 231h33v33H66V231M99 231h33v33H99V231M132 231h33v33H132V231M165 231h33v33H165V231M198 231h33v33H198V231M231 231h33v33H231V231M297 231h33v33H297V231M363 231h33v33H363V231M429 231h33v33H429V231M495 231h33v33H495V231M561 231h33v33H561V231M627 231h33v33H627V231M693 231h33v33H693V231M759 231h33v33H759V231M792 231h33v33H792V231M825 231h33v33H825V231M858 231h33v33H858V231M891 231h33v33H891V231M924 231h33v33H924V231M957 231h33v33H957V231M297 264h33v33H297V264M330 264h33v33H330V264M363 264h33v33H363V264M495 264h33v33H495V264M561 264h33v33H561V264M594 264h33v33H594V264M627 264h33v33H627V264M660 264h33v33H660V264M693 264h33v33H693V264M33 297h33v33H33V297M99 297h33v33H99V297M132 297h33v33H132V297M198 297h33v33H198V297M231 297h33v33H231V297M264 297h33v33H264V297M330 297h33v33H330V297M396 297h33v33H396V297M495 297h33v33H495V297M627 297h33v33H627V297M660 297h33v33H660V297M759 297h33v33H759V297M858 297h33v33H858V297M924 297h33v33H924V297M957 297h33v33H957V297M33 330h33v33H33V330M66 330h33v33H66V330M99 330h33v33H99V330M132 330h33v33H132V330M330 330h33v33H330V330M462 330h33v33H462V330M561 330h33v33H561V330M693 330h33v33H693V330M726 330h33v33H726V330M759 330h33v33H759V330M792 330h33v33H792V330M825 330h33v33H825V330M957 330h33v33H957V330M33 363h33v33H33V363M66 363h33v33H66V363M231 363h33v33H231V363M264 363h33v33H264V363M330 363h33v33H330V363M396 363h33v33H396V363M429 363h33v33H429V363M462 363h33v33H462V363M561 363h33v33H561V363M594 363h33v33H594V363M627 363h33v33H627V363M726 363h33v33H726V363M759 363h33v33H759V363M825 363h33v33H825V363M891 363h33v33H891V363M924 363h33v33H924V363M33 396h33v33H33V396M66 396h33v33H66V396M132 396h33v33H132V396M165 396h33v33H165V396M264 396h33v33H264V396M330 396h33v33H330V396M363 396h33v33H363V396M462 396h33v33H462V396M495 396h33v33H495V396M561 396h33v33H561V396M627 396h33v33H627V396M693 396h33v33H693V396M792 396h33v33H792V396M825 396h33v33H825V396M957 396h33v33H957V396M99 429h33v33H99V429M132 429h33v33H132V429M231 429h33v33H231V429M264 429h33v33H264V429M429 429h33v33H429V429M462 429h33v33H462V429M495 429h33v33H495V429M528 429h33v33H528V429M594 429h33v33H594V429M627 429h33v33H627V429M693 429h33v33H693V429M726 429h33v33H726V429M858 429h33v33H858V429M891 429h33v33H891V429M132 462h33v33H132V462M165 462h33v33H165V462M264 462h33v33H264V462M297 462h33v33H297V462M363 462h33v33H363V462M396 462h33v33H396V462M528 462h33v33H528V462M561 462h33v33H561V462M594 462h33v33H594V462M627 462h33v33H627V462M726 462h33v33H726V462M759 462h33v33H759V462M891 462h33v33H891V462M924 462h33v33H924V462M957 462h33v33H957V462M66 495h33v33H66V495M99 495h33v33H99V495M132 495h33v33H132V495M231 495h33v33H231V495M264 495h33v33H264V495M363 495h33v33H363V495M495 495h33v33H495V495M561 495h33v33H561V495M594 495h33v33H594V495M660 495h33v33H660V495M693 495h33v33H693V495M759 495h33v33H759V495M891 495h33v33H891V495M924 495h33v33H924V495M957 495h33v33H957V495M99 528h33v33H99V528M132 528h33v33H132V528M165 528h33v33H165V528M198 528h33v33H198V528M264 528h33v33H264V528M297 528h33v33H297V528M330 528h33v33H330V528M396 528h33v33H396V528M429 528h33v33H429V528M528 528h33v33H528V528M627 528h33v33H627V528M660 528h33v33H660V528M693 528h33v33H693V528M759 528h33v33H759V528M792 528h33v33H792V528M924 528h33v33H924V528M99 561h33v33H99V561M132 561h33v33H132V561M198 561h33v33H198V561M231 561h33v33H231V561M264 561h33v33H264V561M330 561h33v33H330V561M396 561h33v33H396V561M429 561h33v33H429V561M462 561h33v33H462V561M561 561h33v33H561V561M594 561h33v33H594V561M627 561h33v33H627V561M660 561h33v33H660V561M693 561h33v33H693V561M792 561h33v33H792V561M825 561h33v33H825V561M858 561h33v33H858V561M924 561h33v33H924V561M132 594h33v33H132V594M198 594h33v33H198V594M297 594h33v33H297V594M330 594h33v33H330V594M363 594h33v33H363V594M462 594h33v33H462V594M495 594h33v33H495V594M528 594h33v33H528V594M594 594h33v33H594V594M792 594h33v33H792V594M858 594h33v33H858V594M891 594h33v33H891V594M924 594h33v33H924V594M33 627h33v33H33V627M99 627h33v33H99V627M132 627h33v33H132V627M198 627h33v33H198V627M231 627h33v33H231V627M297 627h33v33H297V627M330 627h33v33H330V627M363 627h33v33H363V627M429 627h33v33H429V627M528 627h33v33H528V627M627 627h33v33H627V627M759 627h33v33H759V627M792 627h33v33H792V627M891 627h33v33H891V627M99 660h33v33H99V660M165 660h33v33H165V660M198 660h33v33H198V660M297 660h33v33H297V660M330 660h33v33H330V660M429 660h33v33H429V660M495 660h33v33H495V660M594 660h33v33H594V660M759 660h33v33H759V660M825 660h33v33H825V660M891 660h33v33H891V660M66 693h33v33H66V693M132 693h33v33H132V693M165 693h33v33H165V693M231 693h33v33H231V693M297 693h33v33H297V693M495 693h33v33H495V693M594 693h33v33H594V693M693 693h33v33H693V693M726 693h33v33H726V693M759 693h33v33H759V693M792 693h33v33H792V693M825 693h33v33H825V693M858 693h33v33H858V693M891 693h33v33H891V693M297 726h33v33H297V726M330 726h33v33H330V726M363 726h33v33H363V726M396 726h33v33H396V726M429 726h33v33H429V726M462 726h33v33H462V726M561 726h33v33H561V726M594 726h33v33H594V726M627 726h33v33H627V726M693 726h33v33H693V726M825 726h33v33H825V726M858 726h33v33H858V726M891 726h33v33H891V726M924 726h33v33H924V726M957 726h33v33H957V726M33 759h33v33H33V759M66 759h33v33H66V759M99 759h33v33H99V759M132 759h33v33H132V759M165 759h33v33H165V759M198 759h33v33H198V759M231 759h33v33H231V759M297 759h33v33H297V759M396 759h33v33H396V759M462 759h33v33H462V759M561 759h33v33H561V759M627 759h33v33H627V759M660 759h33v33H660V759M693 759h33v33H693V759M759 759h33v33H759V759M825 759h33v33H825V759M858 759h33v33H858V759M924 759h33v33H924V759M33 792h33v33H33V792M231 792h33v33H231V792M297 792h33v33H297V792M363 792h33v33H363V792M462 792h33v33H462V792M528 792h33v33H528V792M693 792h33v33H693V792M825 792h33v33H825V792M858 792h33v33H858V792M33 825h33v33H33V825M99 825h33v33H99V825M132 825h33v33H132V825M165 825h33v33H165V825M231 825h33v33H231V825M396 825h33v33H396V825M429 825h33v33H429V825M594 825h33v33H594V825M693 825h33v33H693V825M726 825h33v33H726V825M759 825h33v33H759V825M792 825h33v33H792V825M825 825h33v33H825V825M891 825h33v33H891V825M924 825h33v33H924V825M957 825h33v33H957V825M33 858h33v33H33V858M99 858h33v33H99V858M132 858h33v33H132V858M165 858h33v33H165V858M231 858h33v33H231V858M297 858h33v33H297V858M330 858h33v33H330V858M363 858h33v33H363V858M495 858h33v33H495V858M528 858h33v33H528V858M561 858h33v33H561V858M594 858h33v33H594V858M660 858h33v33H660V858M726 858h33v33H726V858M792 858h33v33H792V858M825 858h33v33H825V858M858 858h33v33H858V858M957 858h33v33H957V858M33 891h33v33H33V891M99 891h33v33H99V891M132 891h33v33H132V891M165 891h33v33H165V891M231 891h33v33H231V891M297 891h33v33H297V891M429 891h33v33H429V891M462 891h33v33H462V891M561 891h33v33H561V891M594 891h33v33H594V891M627 891h33v33H627V891M693 891h33v33H693V891M792 891h33v33H792V891M891 891h33v33H891V891M957 891h33v33H957V891M33 924h33v33H33V924M231 924h33v33H231V924M330 924h33v33H330V924M396 924h33v33H396V924M429 924h33v33H429V924M462 924h33v33H462V924M528 924h33v33H528V924M561 924h33v33H561V924M627 924h33v33H627V924M693 924h33v33H693V924M759 924h33v33H759V924M792 924h33v33H792V924M858 924h33v33H858V924M924 924h33v33H924V924M33 957h33v33H33V957M66 957h33v33H66V957M99 957h33v33H99V957M132 957h33v33H132V957M165 957h33v33H165V957M198 957h33v33H198V957M231 957h33v33H231V957M297 957h33v33H297V957M363 957h33v33H363V957M396 957h33v33H396V957M429 957h33v33H429V957M462 957h33v33H462V957M528 957h33v33H528V957M627 957h33v33H627V957M660 957h33v33H660V957M693 957h33v33H693V957M792 957h33v33H792V957M924 957h33v33H924V957"/>
</svg>