<svg xmlns="http://www.w3.org/2000/svg" height="24" viewBox="0 -960 960 960" width="24"><path d="M201.387-80.31q-28.891 0-49.792-21.219-20.9-21.219-20.9-49.473v-564.149h58.384v564.149q0 4.616 3.846 8.462 3.846 3.847 8.462 3.847h436.457v58.383H201.387Zm136.769-136.768q-28.892 0-49.792-21.219-20.9-21.22-20.9-49.473v-517.843q0-28.254 20.9-49.473 20.9-21.219 49.792-21.219h396.843q28.253 0 49.472 21.219 21.22 21.219 21.22 49.473v517.843q0 28.253-21.22 49.473-21.219 21.219-49.472 21.219H338.156Zm0-58.384h396.843q4.615 0 8.462-3.846 3.846-3.847 3.846-8.462v-517.843q0-4.616-3.846-8.462-3.847-3.847-8.462-3.847H338.156q-4.616 0-8.462 3.847-3.847 3.846-3.847 8.462v517.843q0 4.615 3.847 8.462 3.846 3.846 8.462 3.846Zm-12.309 0V-817.922-275.462Z"/></svg>