<svg xmlns="http://www.w3.org/2000/svg" height="24" viewBox="0 -960 960 960" width="24"><path d="M533-87.232v-89.154h89.154v89.154H533Zm-89.154-89.154v-214.46H533v214.46h-89.154Zm339.768-140.693V-480h89.154v162.921h-89.154ZM694.461-480v-89.154h89.153V-480h-89.153Zm-518.075 89.154V-480h89.153v89.154h-89.153ZM87.232-480v-89.154h89.154V-480H87.232ZM480-783.614v-89.154h89.154v89.154H480ZM137.616-655.691h166.693v-166.693H137.616v166.693Zm-50.384 50.384v-267.461h267.461v267.461H87.233Zm50.384 467.691h169.77v-166.693h-169.77v166.693ZM87.232-87.232v-267.461H357.77v267.46H87.232Zm568.459-568.459h166.693v-166.693H655.691v166.693Zm-50.384 50.384v-267.461h267.461v267.461H605.307Zm89.154 518.075v-140.693h-89.154v-89.154h178.307v140.693h89.154v89.154H694.461ZM533-390.846V-480h161.461v89.154H533Zm-178.307 0V-480h-89.154v-89.154H533V-480h-89.154v89.154h-89.153Zm36.153-214.461v-178.307H480v89.153h89.154v89.154H390.846ZM186.77-704.845v-68.385h68.385v68.385H186.77Zm2.693 515.382v-68.384h68.384v68.384h-68.384Zm515.382-515.382v-68.385h68.385v68.385h-68.385Z"/></svg>